<?xml version="1.0" standalone="no"?>
<svg version="1.0" xmlns="http://www.w3.org/2000/svg"
 width="760.000000pt" height="760.000000pt" viewBox="0 0 760.000000 760.000000"
 preserveAspectRatio="xMidYMid meet">

<g transform="translate(0.000000,760.000000) scale(0.100000,-0.100000)"
fill="#117889" stroke="none">
<path d="M2540 7576 c-142 -40 -265 -143 -318 -267 -11 -24 -26 -49 -33 -55
-8 -6 -86 -24 -174 -39 -88 -15 -168 -31 -177 -36 -18 -10 -48 -59 -48 -79 0
-62 117 -159 248 -206 42 -15 82 -31 89 -36 6 -5 14 -48 18 -96 15 -203 61
-385 119 -470 46 -66 100 -94 195 -99 120 -6 112 -1 176 -125 93 -181 237
-451 253 -476 8 -13 18 -19 22 -15 4 4 74 139 155 298 81 160 181 354 221 433
41 78 74 146 74 150 0 4 -12 13 -27 19 -16 7 -49 39 -75 72 l-47 59 19 169
c44 375 21 496 -121 648 -67 72 -157 123 -264 150 -71 18 -241 19 -305 1z
m219 -147 c36 -6 83 -20 104 -31 35 -17 38 -22 32 -49 -14 -62 -73 -224 -81
-223 -5 1 -52 15 -104 31 -52 16 -148 45 -212 64 -65 19 -118 39 -118 45 0 23
65 96 108 121 44 26 129 50 181 52 13 1 54 -4 90 -10z m-279 -342 c35 -13 65
-28 67 -34 2 -6 -64 -21 -169 -38 -144 -23 -180 -25 -214 -16 -39 11 -130 68
-122 77 3 2 54 13 114 24 135 24 235 20 324 -13z m212 -170 c7 -8 33 -53 58
-100 25 -48 47 -87 50 -86 3 0 28 27 55 60 59 71 94 93 136 84 46 -10 72 -51
65 -102 -11 -83 -63 -136 -168 -173 -50 -17 -52 -20 -65 -71 -33 -131 -86
-165 -269 -175 l-121 -7 -30 29 c-48 45 -89 192 -100 359 l-5 90 183 52 c101
28 187 52 191 52 4 1 13 -5 20 -12z" />
<path d="M961 7232 c-47 -49 -131 -167 -131 -185 0 -6 18 -27 39 -47 38 -37
113 -70 156 -70 38 0 75 -37 75 -75 0 -28 -22 -59 -147 -206 -81 -96 -157
-185 -168 -198 -42 -51 -82 -84 -146 -122 -113 -67 -155 -121 -166 -208 -6
-52 -11 -58 -202 -291 -110 -133 -121 -149 -121 -178 0 -27 68 -96 150 -152
93 -63 101 -61 196 55 42 53 80 92 84 88 4 -4 28 -46 52 -93 124 -232 217
-407 594 -1110 75 -140 118 -180 194 -180 43 0 106 29 581 264 294 146 542
271 553 278 17 14 16 20 -39 136 -32 67 -62 122 -67 122 -5 0 -73 -41 -150
-91 -467 -302 -829 -514 -864 -507 -14 3 -204 339 -375 667 -54 102 -69 140
-64 160 5 25 87 111 105 111 5 0 43 -48 86 -107 42 -60 103 -140 135 -180 69
-87 92 -144 127 -325 l28 -139 63 73 c79 91 369 379 561 558 80 74 197 183
260 243 l114 109 17 -73 c67 -305 164 -546 362 -909 43 -80 106 -196 140 -258
34 -62 69 -118 79 -123 12 -6 120 2 335 25 413 45 506 54 516 48 9 -4 -194
-72 -623 -207 -135 -42 -306 -96 -380 -120 -74 -24 -171 -55 -215 -68 -244
-75 -881 -280 -900 -290 -26 -14 -41 -32 -154 -185 -59 -80 -84 -121 -83 -140
1 -27 120 -336 354 -917 66 -165 128 -320 138 -345 10 -25 34 -85 55 -135 21
-49 50 -121 65 -160 22 -57 89 -221 140 -342 l9 -23 83 29 c46 16 211 70 368
121 157 51 288 95 292 99 4 4 -89 297 -207 651 -118 355 -215 653 -215 662 0
16 42 17 568 21 544 3 570 4 644 25 144 40 287 117 379 204 138 130 217 306
237 529 15 169 -2 317 -94 799 -19 102 -37 192 -40 201 -4 13 -27 17 -137 22
-235 10 -374 64 -507 197 -84 83 -138 177 -184 314 -72 216 -74 504 -6 706 66
196 171 350 238 350 18 0 112 -25 209 -55 98 -31 259 -81 358 -112 243 -75
551 -172 600 -188 22 -7 39 -17 38 -23 -2 -6 -42 -77 -89 -157 -74 -125 -90
-145 -111 -145 -14 0 -192 33 -397 74 -204 41 -383 76 -398 78 -27 5 -28 4
-28 -38 0 -144 164 -392 277 -420 13 -4 26 -5 28 -2 2 2 0 46 -5 98 -6 51 -8
96 -5 98 9 10 479 -85 515 -103 16 -8 95 -122 214 -306 104 -162 209 -324 232
-361 24 -36 46 -78 50 -92 4 -16 -6 -65 -26 -132 -19 -63 -30 -120 -27 -138 2
-17 29 -87 60 -156 l55 -125 -36 -19 c-39 -20 -332 -157 -490 -229 -51 -23
-97 -49 -102 -57 -4 -9 -20 -87 -35 -173 l-27 -158 27 -62 c15 -34 75 -165
133 -292 58 -126 127 -278 153 -337 27 -60 72 -157 99 -218 28 -60 73 -160
100 -222 28 -62 52 -114 54 -115 5 -6 156 69 156 77 0 4 -15 41 -34 81 -35 75
-61 134 -211 469 -45 102 -127 284 -182 405 -55 121 -103 232 -106 246 -4 14
0 53 8 85 20 78 70 125 196 181 185 83 447 202 634 288 105 48 233 107 285
130 196 89 550 251 833 382 78 37 95 53 55 53 -13 0 -96 5 -186 10 l-163 11
-87 -40 c-218 -99 -312 -141 -316 -141 -5 0 -56 127 -56 140 0 5 -12 35 -27
65 -32 68 -93 132 -167 174 -31 17 -62 41 -70 53 -13 21 -146 350 -246 613
-123 322 -201 509 -219 529 -12 13 -45 30 -74 40 -29 9 -131 41 -227 70 -282
88 -678 212 -915 289 -256 82 -304 87 -399 44 -140 -64 -284 -266 -356 -499
-43 -139 -52 -210 -57 -418 -2 -113 -7 -208 -12 -213 -9 -9 -363 -136 -402
-144 -33 -6 -31 -11 -86 162 -50 158 -81 303 -94 435 -6 63 -12 116 -13 117
-3 3 -164 -59 -188 -73 -9 -5 -90 -79 -180 -165 -319 -306 -673 -639 -678
-639 -3 0 -84 106 -180 236 -96 130 -196 264 -223 298 -76 98 -80 112 -87 286
-7 174 -16 206 -75 263 -24 23 -34 40 -29 49 4 7 86 107 182 221 l175 208 39
-38 c55 -53 77 -108 92 -220 11 -93 13 -98 39 -107 38 -14 54 5 89 106 59 171
57 303 -7 435 -29 59 -55 90 -148 179 -132 125 -183 161 -246 170 -62 9 -77
18 -97 60 -17 35 -58 64 -90 64 -10 0 -38 -21 -63 -48z m239 -556 c0 -14 -21
-43 -81 -111 -15 -16 -64 -73 -109 -125 -45 -52 -87 -95 -92 -95 -6 0 -15 7
-21 16 -14 22 247 328 281 329 12 0 22 -6 22 -14z m-365 -537 c25 -23 57 -67
72 -98 25 -53 27 -64 27 -211 1 -164 7 -191 58 -246 l19 -21 -58 -52 c-32 -28
-60 -51 -63 -51 -3 1 -31 46 -62 101 -37 64 -58 112 -58 132 0 17 10 97 22
176 l21 145 -73 68 c-72 65 -73 67 -49 76 13 5 31 12 39 15 36 13 63 5 105
-34z m-190 -169 l28 -29 -44 -55 c-24 -30 -46 -55 -49 -55 -3 0 -20 12 -38 27
l-34 28 47 57 c26 31 51 57 54 57 4 0 20 -13 36 -30z m4514 -111 c20 -48 31
-89 27 -102 -7 -28 -204 -282 -218 -282 -6 0 -20 12 -31 28 -34 45 -26 84 46
209 108 190 131 228 137 228 3 0 21 -36 39 -81z m170 -436 c42 -101 127 -307
157 -379 3 -6 -37 -30 -87 -53 -75 -35 -94 -40 -104 -29 -7 7 -58 91 -115 187
-94 158 -102 176 -90 195 23 38 175 213 181 210 3 -2 30 -61 58 -131z m281
-619 c8 -12 50 -43 93 -69 44 -27 83 -58 91 -73 7 -15 27 -78 45 -141 27 -94
30 -116 19 -127 -7 -7 -86 -46 -176 -88 l-164 -75 -14 37 c-38 93 -68 150 -97
180 l-31 32 23 93 c20 79 22 98 12 134 -6 23 -16 45 -21 48 -13 8 -13 35 0 35
6 0 49 18 98 40 l87 39 10 -22 c6 -12 17 -32 25 -43z"/>
<path d="M6720 4394 c-113 -52 -248 -114 -300 -138 -52 -25 -149 -69 -215 -99
-66 -31 -284 -131 -485 -223 -201 -92 -417 -191 -480 -219 -286 -131 -293
-134 -287 -153 3 -9 29 -69 58 -133 l52 -117 75 34 c41 19 78 34 82 34 4 0 17
-24 29 -52 12 -29 26 -61 31 -70 8 -15 1 -22 -48 -47 -98 -50 -96 -47 -66
-111 14 -30 82 -181 151 -335 144 -321 170 -375 182 -375 5 0 63 25 128 56 65
31 213 100 328 154 292 136 507 237 810 380 143 67 352 165 465 217 113 52
208 98 212 101 3 4 -7 36 -22 72 -35 78 -121 283 -220 520 -41 96 -75 177 -76
178 -1 2 -49 -17 -105 -42 -57 -25 -106 -43 -109 -39 -4 5 -21 39 -38 76 l-32
68 108 51 c59 28 108 52 110 53 1 1 -16 47 -39 101 -22 54 -45 111 -51 127 -5
15 -17 27 -26 26 -10 0 -109 -43 -222 -95z"/>
<path d="M4457 3198 c-155 -205 -380 -326 -694 -373 -59 -9 -109 -18 -111 -20
-4 -4 88 -173 478 -875 81 -146 164 -296 185 -335 21 -38 48 -77 59 -85 19
-14 109 -50 531 -217 77 -31 205 -82 285 -114 577 -231 958 -379 975 -379 7 0
16 8 20 18 3 9 38 105 77 212 38 107 90 250 115 318 25 67 43 125 40 128 -3 3
-113 51 -244 106 -970 406 -1208 508 -1225 526 -9 9 -80 193 -158 407 -158
435 -245 673 -264 724 l-13 34 -56 -75z"/>
<path d="M2845 1410 c-99 -31 -220 -69 -270 -84 -49 -15 -95 -32 -101 -39 -6
-7 -49 -127 -94 -268 l-83 -257 -88 -103 c-49 -57 -94 -119 -100 -138 -17 -50
4 -132 42 -171 52 -52 99 -41 279 68 294 177 905 622 916 667 11 43 -3 69 -88
166 -169 192 -196 219 -217 218 -9 0 -97 -27 -196 -59z"/>
<path d="M6905 1434 c-11 -1 -87 -8 -169 -15 -112 -9 -153 -16 -165 -28 -9 -9
-60 -139 -114 -288 -86 -239 -97 -275 -86 -295 7 -13 51 -77 98 -143 204 -284
207 -288 237 -420 37 -167 49 -187 129 -225 56 -27 97 -25 134 6 35 29 45 60
60 194 32 276 45 1146 18 1181 -26 34 -70 44 -142 33z"/>
</g>
</svg>
